<svg fill="#ca2527" id="Capa_1" data-name="Capa 1" xmlns="http://www.w3.org/2000/svg" viewBox="0 0 327.28 302.72"><path d="M372.64,398.21h-1.45q-35.58,0-71.15,0a1.9,1.9,0,0,1-2-1.24q-31.86-62.08-63.77-124.15-12.24-23.84-24.5-47.66c-.21-.42-.44-.82-.78-1.45-.32.57-.54.93-.74,1.3L157,323.67Q138,360.33,119,397a2,2,0,0,1-2.11,1.25q-34.92-.06-69.83,0H45.36L208.72,95.52Q290.74,247,372.64,398.21Z" transform="translate(-45.36 -95.52)"/><path d="M209,269c15.08,28.77,30,57.32,45.06,86H163.94Z" transform="translate(-45.36 -95.52)"/></svg>